<svg width="276" height="273" viewBox="0 0 276 273" fill="none" xmlns="http://www.w3.org/2000/svg">
<path d="M201.37 135.5V249.5C201.344 253.497 199.744 257.322 196.918 260.148C194.092 262.974 190.266 264.574 186.27 264.6H97.5698C93.5824 264.574 89.7673 262.971 86.9571 260.142C84.1469 257.313 82.5697 253.488 82.5698 249.5V23.2C82.5697 19.2124 84.1469 15.3868 86.9571 12.5579C89.7673 9.72892 93.5824 8.12638 97.5698 8.09998H186.27C190.266 8.12618 194.092 9.7255 196.918 12.5516C199.744 15.3778 201.344 19.2033 201.37 23.2V135.5Z" fill="white"/>
<path d="M119.67 2.19995H164.17C166.132 2.19995 168.015 2.9796 169.402 4.36737C170.79 5.75514 171.57 7.63737 171.57 9.59998C171.57 11.5626 170.79 13.4448 169.402 14.8326C168.015 16.2204 166.132 17 164.17 17H119.67C117.707 17 115.825 16.2204 114.437 14.8326C113.049 13.4448 112.27 11.5626 112.27 9.59998C112.27 7.63737 113.049 5.75514 114.437 4.36737C115.825 2.9796 117.707 2.19995 119.67 2.19995Z" fill="#F3F3F3"/>
<path d="M186.67 1.20667e-09H97.1699C94.2986 -3.02074e-05 91.4556 0.567145 88.8042 1.66895C86.1528 2.77075 83.7451 4.38543 81.7195 6.42035C79.6938 8.45527 78.0901 10.8703 77.0005 13.5268C75.9108 16.1832 75.3567 19.0287 75.3699 21.9V250.8C75.3567 253.671 75.9108 256.517 77.0005 259.173C78.0901 261.83 79.6938 264.245 81.7195 266.28C83.7451 268.315 86.1528 269.929 88.8042 271.031C91.4556 272.133 94.2986 272.7 97.1699 272.7H186.67C192.478 272.7 198.048 270.393 202.155 266.286C206.263 262.179 208.57 256.608 208.57 250.8V21.9C208.57 16.0917 206.263 10.5214 202.155 6.41431C198.048 2.30726 192.478 1.20667e-09 186.67 1.20667e-09ZM201.37 135.5V249.5C201.344 253.497 199.744 257.322 196.918 260.148C194.092 262.974 190.267 264.574 186.27 264.6H97.5699C93.5824 264.574 89.7673 262.971 86.9571 260.142C84.1469 257.313 82.5698 253.488 82.5699 249.5V23.2C82.5698 19.2124 84.1469 15.3868 86.9571 12.5579C89.7673 9.72892 93.5824 8.12638 97.5699 8.09998H186.27C190.267 8.12618 194.092 9.7255 196.918 12.5516C199.744 15.3778 201.344 19.2033 201.37 23.2V135.5Z" fill="#F3F3F3"/>
<path d="M190.67 32.9H93.2698V80.6H190.67V32.9Z" fill="#F3F3F3"/>
<path d="M228.67 119.4H98.6699V123.89H228.67V119.4Z" fill="#F3F3F3"/>
<path d="M228.67 131.2H98.6699V135.69H228.67V131.2Z" fill="#F3F3F3"/>
<path d="M228.67 143H98.6699V147.49H228.67V143Z" fill="#F3F3F3"/>
<path d="M228.67 154.8H98.6699V159.29H228.67V154.8Z" fill="#F3F3F3"/>
<path d="M228.67 166.6H98.6699V171.09H228.67V166.6Z" fill="#F3F3F3"/>
<path d="M228.67 178.4H98.6699V182.89H228.67V178.4Z" fill="#F3F3F3"/>
<path d="M228.67 190.2H98.6699V194.69H228.67V190.2Z" fill="#F3F3F3"/>
<path d="M228.67 202H98.6699V206.49H228.67V202Z" fill="#F3F3F3"/>
<path d="M214.67 222.5H124.27V226.99H214.67V222.5Z" fill="#F3F3F3"/>
<path d="M223.97 231.9H124.27V236.39H223.97V231.9Z" fill="#F3F3F3"/>
<path d="M107.37 107.3H92.6699V111.96H107.37V107.3Z" fill="#F3F3F3"/>
<path d="M125.67 107.3H110.97V111.96H125.67V107.3Z" fill="#F3F3F3"/>
<path d="M145.17 107.3H130.47V111.96H145.17V107.3Z" fill="#F3F3F3"/>
<path d="M109.27 238.6C114.682 238.6 119.07 234.212 119.07 228.8C119.07 223.388 114.682 219 109.27 219C103.857 219 99.4698 223.388 99.4698 228.8C99.4698 234.212 103.857 238.6 109.27 238.6Z" fill="#F3F3F3"/>
<path d="M219.47 89.2999H98.6699V98.8799H219.47V89.2999Z" fill="#E2E2E2"/>
<path d="M76.267 244.133L71.2909 250.785L77.2082 255.212L82.1843 248.56L76.267 244.133Z" fill="#DE8E68"/>
<path d="M66.2835 258.415H57.2842V264.29H66.2835V258.415Z" fill="#DE8E68"/>
<path d="M38.6799 146.875C38.6799 146.875 20.5082 209.091 20.5082 210.389C20.5082 211.687 71.3024 253.136 72.2542 253.136C73.2061 253.136 77.1 245.608 77.1 244.223C77.1 242.839 64.9856 232.974 64.9856 232.974L38.6799 146.875Z" fill="#3F51B5"/>
<path d="M66.6294 258.588L72.2539 145.837C69.5715 147.74 55.8995 151.634 38.6796 146.875C39.8911 156.74 56.7648 259.193 56.7648 259.193H66.5428L66.6294 258.588Z" fill="#2962FF"/>
<path d="M37.7279 113.301C35.4781 112.09 11.2492 96.0812 7.2687 96.0812C3.28824 96.0812 3.63437 98.4175 3.63437 99.1098C3.63437 99.802 4.15355 104.475 15.2296 107.33C16.1815 108.542 32.3629 124.983 37.2087 126.886C37.2087 121.781 37.7279 113.301 37.7279 113.301Z" fill="#DE8E68"/>
<path d="M56.505 64.2373C26.4785 64.2373 37.0354 144.539 38.6795 146.875C40.3236 149.212 71.0423 150.769 72.8595 144.885C74.1575 140.991 80.5608 64.2373 56.505 64.2373Z" fill="#FFD740"/>
<path d="M13.1527 103.782L-0.00012207 95.2156L7.18202 91.2351L19.9887 99.2826L13.1527 103.782Z" fill="#333333"/>
<path d="M58.928 97.8116C58.928 100.061 60.8317 115.205 63.5142 122.473L56.7647 157.778L60.8317 162.97C60.8317 162.97 75.5421 131.819 76.2344 126.886C76.9266 121.954 75.196 97.8116 74.9364 96.6002C74.6768 95.3887 58.928 97.8116 58.928 97.8116Z" fill="#DE8E68"/>
<path d="M66.1104 71.852C75.1097 71.6789 77.6192 95.4752 76.1481 97.5519C74.6771 99.6287 58.6687 101.359 56.8516 99.2826C55.0344 97.2058 56.6785 72.0251 66.1104 71.852Z" fill="#FFAB00"/>
<path d="M59.2743 52.469H49.3231V68.1312C49.3231 70.208 59.2743 70.0349 59.2743 68.1312V52.469Z" fill="#D37C59"/>
<path d="M61.5336 45.8118C62.048 36.8898 58.2492 29.4141 53.0487 29.1142C47.8482 28.8143 43.2154 35.8039 42.7009 44.7259C42.1865 53.6478 45.9853 61.1236 51.1858 61.4234C56.3863 61.7233 61.0192 54.7337 61.5336 45.8118Z" fill="#DE8E68"/>
<path d="M32.3626 40.268C32.3626 38.7104 33.2279 36.9798 33.2279 35.1626C33.2279 33.3454 32.5357 31.7879 32.5357 29.538C32.5357 25.8172 36.3431 24 38.3333 24C42.1407 24 43.006 26.6825 49.0632 26.6825C52.611 26.6825 54.1686 25.8172 56.2454 25.8172C62.4757 25.8172 63.341 33.605 63.341 34.4703C63.341 38.2777 68.5329 38.5373 68.5329 42.5178C68.5329 46.4983 64.4659 50.8249 61.3507 50.8249C58.2356 50.8249 55.2935 47.8828 55.2935 47.0175C55.2935 46.1521 55.8127 44.508 55.8127 43.2101C55.8127 38.5373 45.5154 37.4124 43.9579 37.4124C43.1897 39.7964 42.7245 42.2675 42.5734 44.7676C41.4429 45.213 40.2405 45.4477 39.0256 45.4599C37.9006 45.4599 32.3626 44.0754 32.3626 40.268Z" fill="#1A237E"/>
<path d="M59.7065 53.6803C60.9969 53.6803 62.0429 52.6343 62.0429 51.3439C62.0429 50.0536 60.9969 49.0076 59.7065 49.0076C58.4162 49.0076 57.3702 50.0536 57.3702 51.3439C57.3702 52.6343 58.4162 53.6803 59.7065 53.6803Z" fill="#DE8E68"/>
<path d="M66.4561 263.606H56.851L41.4484 269.75V272H66.4561V263.606Z" fill="black"/>
<path d="M81.7722 248.29L76.4937 255.299L72.5133 270.01L74.1574 271.308L87.916 252.877L81.7722 248.29Z" fill="black"/>
<path d="M165.87 160.9C164.47 160.9 163.77 164.6 163.77 167.7C163.803 177.021 164.64 186.322 166.27 195.5H167.27C171.67 195.5 175.27 196.7 175.27 198.2C175.27 199.7 171.77 201 167.37 201C167.484 201.287 167.551 201.591 167.57 201.9C171.87 202 175.27 203.2 175.27 204.7C175.27 206.2 172.57 207.1 168.97 207.4C176.67 237.5 191.57 261.3 201.57 272.4H214.67V261.4C214.67 242.3 181.67 160.9 165.87 160.9Z" fill="#56CAD8"/>
<path d="M265.77 192.9C257.17 192.9 256.27 202.1 250.37 202.1C248.17 202.1 247.57 199.7 247.57 197.5C247.57 193.7 253.67 179.4 254.27 170.3L252.37 170.5C248.27 170.5 244.97 168.1 244.97 165.2C244.97 162.3 248.27 159.9 252.37 159.9H252.97C250.97 153.2 246.47 146.2 236.37 146.2C219.87 146.2 215.37 175.4 212.87 187.3C211.37 194.6 194.87 221 194.87 240.5C194.87 257.7 200.17 272.4 201.57 272.4H218.17C218.17 267.1 228.47 257.3 230.87 254.7C247.77 236.2 275.67 227.8 275.67 206.1C275.67 201.4 274.47 192.9 265.77 192.9Z" fill="#74D5DE"/>
</svg>
