<svg width="303" height="107" viewBox="0 0 303 107" fill="none" xmlns="http://www.w3.org/2000/svg">
<path d="M138.515 44.9V51.75H124.215V59.15H134.915V65.8H124.215V80H115.665V44.9H138.515ZM146.309 49.2C144.809 49.2 143.576 48.7667 142.609 47.9C141.676 47 141.209 45.9 141.209 44.6C141.209 43.2667 141.676 42.1667 142.609 41.3C143.576 40.4 144.809 39.95 146.309 39.95C147.776 39.95 148.976 40.4 149.909 41.3C150.876 42.1667 151.359 43.2667 151.359 44.6C151.359 45.9 150.876 47 149.909 47.9C148.976 48.7667 147.776 49.2 146.309 49.2ZM150.559 52.1V80H142.009V52.1H150.559ZM172.755 51.8C176.022 51.8 178.622 52.8667 180.555 55C182.522 57.1 183.505 60 183.505 63.7V80H175.005V64.85C175.005 62.9833 174.522 61.5333 173.555 60.5C172.589 59.4667 171.289 58.95 169.655 58.95C168.022 58.95 166.722 59.4667 165.755 60.5C164.789 61.5333 164.305 62.9833 164.305 64.85V80H155.755V52.1H164.305V55.8C165.172 54.5667 166.339 53.6 167.805 52.9C169.272 52.1667 170.922 51.8 172.755 51.8ZM203.997 72.75V80H199.647C196.547 80 194.13 79.25 192.397 77.75C190.663 76.2167 189.797 73.7333 189.797 70.3V59.2H186.397V52.1H189.797V45.3H198.347V52.1H203.947V59.2H198.347V70.4C198.347 71.2333 198.547 71.8333 198.947 72.2C199.347 72.5667 200.013 72.75 200.947 72.75H203.997ZM234.059 65.6C234.059 66.4 234.009 67.2333 233.909 68.1H214.559C214.693 69.8333 215.243 71.1667 216.209 72.1C217.209 73 218.426 73.45 219.859 73.45C221.993 73.45 223.476 72.55 224.309 70.75H233.409C232.943 72.5833 232.093 74.2333 230.859 75.7C229.659 77.1667 228.143 78.3167 226.309 79.15C224.476 79.9833 222.426 80.4 220.159 80.4C217.426 80.4 214.993 79.8167 212.859 78.65C210.726 77.4833 209.059 75.8167 207.859 73.65C206.659 71.4833 206.059 68.95 206.059 66.05C206.059 63.15 206.643 60.6167 207.809 58.45C209.009 56.2833 210.676 54.6167 212.809 53.45C214.943 52.2833 217.393 51.7 220.159 51.7C222.859 51.7 225.259 52.2667 227.359 53.4C229.459 54.5333 231.093 56.15 232.259 58.25C233.459 60.35 234.059 62.8 234.059 65.6ZM225.309 63.35C225.309 61.8833 224.809 60.7167 223.809 59.85C222.809 58.9833 221.559 58.55 220.059 58.55C218.626 58.55 217.409 58.9667 216.409 59.8C215.443 60.6333 214.843 61.8167 214.609 63.35H225.309ZM235.87 66.05C235.87 63.15 236.453 60.6167 237.62 58.45C238.82 56.2833 240.47 54.6167 242.57 53.45C244.703 52.2833 247.136 51.7 249.87 51.7C253.37 51.7 256.286 52.6167 258.62 54.45C260.986 56.2833 262.536 58.8667 263.27 62.2H254.17C253.403 60.0667 251.92 59 249.72 59C248.153 59 246.903 59.6167 245.97 60.85C245.036 62.05 244.57 63.7833 244.57 66.05C244.57 68.3167 245.036 70.0667 245.97 71.3C246.903 72.5 248.153 73.1 249.72 73.1C251.92 73.1 253.403 72.0333 254.17 69.9H263.27C262.536 73.1667 260.986 75.7333 258.62 77.6C256.253 79.4667 253.336 80.4 249.87 80.4C247.136 80.4 244.703 79.8167 242.57 78.65C240.47 77.4833 238.82 75.8167 237.62 73.65C236.453 71.4833 235.87 68.95 235.87 66.05ZM283.993 51.8C287.193 51.8 289.76 52.8667 291.693 55C293.626 57.1 294.593 60 294.593 63.7V80H286.093V64.85C286.093 62.9833 285.61 61.5333 284.643 60.5C283.676 59.4667 282.376 58.95 280.743 58.95C279.11 58.95 277.81 59.4667 276.843 60.5C275.876 61.5333 275.393 62.9833 275.393 64.85V80H266.843V43H275.393V55.85C276.26 54.6167 277.443 53.6333 278.943 52.9C280.443 52.1667 282.126 51.8 283.993 51.8Z" fill="#784CFB"/>
<path d="M51.6866 41.5C51.6866 64.4198 33.1064 83 10.1866 83C-12.7332 83 10.1866 64.4198 10.1866 41.5C10.1866 18.5802 -12.7332 0 10.1866 0C33.1064 0 51.6866 18.5802 51.6866 41.5Z" fill="#784CFB" fill-opacity="0.9"/>
<path d="M32.5744 61.4201C33.9962 38.5444 53.6932 21.1526 76.5689 22.5744C99.4446 23.9963 75.4163 41.1188 73.9945 63.9945C72.5727 86.8702 94.2957 106.836 71.4201 105.415C48.5444 103.993 31.1526 84.2958 32.5744 61.4201Z" fill="#784CFB" fill-opacity="0.69"/>
</svg>
