<?xml version="1.0" encoding="utf-8"?>
<!-- Generator: Adobe Illustrator 26.0.2, SVG Export Plug-In . SVG Version: 6.00 Build 0)  -->
<svg version="1.1" id="Camada_1" xmlns="http://www.w3.org/2000/svg" xmlns:xlink="http://www.w3.org/1999/xlink" x="0px" y="0px"
	 viewBox="0 0 275.5 215.8" style="enable-background:new 0 0 275.5 215.8;" xml:space="preserve">
<style type="text/css">
	.st0{opacity:0.38;fill:#E8EFFF;enable-background:new    ;}
	.st1{fill:none;stroke:#231F20;stroke-width:0.154;stroke-miterlimit:10;}
	.st2{fill:url(#SVGID_1_);}
	.st3{fill:#D6E3FF;}
	.st4{fill:#FFFFFF;}
	.st5{fill:#501857;}
	.st6{fill:#FF9400;}
	.st7{fill:#1A006D;}
	.st8{fill:#2A00AD;}
	.st9{fill:#F73B36;}
	.st10{fill:#B23431;}
	.st11{fill:#FFB1D0;}
	.st12{fill:#FE7592;}
	.st13{fill:#70227A;}
	.st14{fill:#FEAB00;}
	.st15{fill:#3E4BF6;}
	.st16{fill:#8BA3EC;}
	.st17{fill:#8E24AA;}
	.st18{fill:#2C34AC;}
	.st19{fill:#FFC31B;}
	.st20{fill:#7FA0FF;}
	.st21{fill:#ABC2FE;}
	.st22{fill:#708FFF;}
	.st23{fill:#FFD769;}
	.st24{fill:#FFC107;}
	.st25{fill:#F44336;}
	.st26{fill:#ECEFF1;}
</style>
<g transform="translate(-255.269 -336.753)">
	<g transform="translate(255.269 336.753)">
		<g transform="translate(0 0)">
			<path class="st0" d="M1.4,210.9C-0.7,190.7-2,167.2,9,153.1c5.4-7,13.1-10.5,18.2-17.9c9.2-13.4,7-34.1,7.3-52.2
				c0.3-19.6,4.5-39.4,13.4-55.1S70.5,1.1,85.2,0.1c21.9-1.5,41.1,18.5,56.6,39.1c8.4,11.2,16.8,23.2,27.8,29.1
				c11.1,5.9,23.4,4.8,35.3,4.8c15.2,0,30.8,2.1,44.4,11.2c13.6,9.1,24.8,26.4,26.1,46.6c1.7,26.4-13.3,53.4-13.2,79.9L1.4,210.9z"
				/>
			<path class="st1" d="M121.2,27.4h0.5c26.2,0,47.4,21.2,47.4,47.4v89.1c0,26.2-21.2,47.4-47.4,47.4h-0.5
				c-26.2,0-47.4-21.2-47.4-47.4V74.8C73.8,48.6,95,27.4,121.2,27.4z"/>
			<path class="st1" d="M164.9,54.9v128.9c0,9.3-7.6,16.9-16.9,16.9H95c-9.3,0-16.9-7.6-16.9-16.9V54.9C78,45.5,85.6,38,95,38h53
				C157.3,38,164.9,45.5,164.9,54.9z"/>
			
				<linearGradient id="SVGID_1_" gradientUnits="userSpaceOnUse" x1="-812.1166" y1="645.5669" x2="-811.6735" y2="646.6989" gradientTransform="matrix(95.306 0 0 -183.948 77499.0391 118978.6172)">
				<stop  offset="0" style="stop-color:#333366"/>
				<stop  offset="1" style="stop-color:#5959B3"/>
			</linearGradient>
			<path class="st2" d="M84.2,27.4h74.4c5.8,0,10.4,4.7,10.4,10.4v163.1c0,5.8-4.7,10.4-10.4,10.4H84.2c-5.8,0-10.4-4.7-10.4-10.4
				V37.8C73.8,32,78.5,27.4,84.2,27.4z"/>
			<path class="st3" d="M164.9,47.6v143.4c0,5.3-4.3,9.7-9.7,9.7H87.7c-5.3,0-9.7-4.3-9.7-9.7V47.6c0-5.3,4.3-9.7,9.7-9.7h67.5
				C160.6,38,164.9,42.3,164.9,47.6z"/>
			<path class="st4" d="M78,99.5v99.1c0,1.2,0.9,2.1,2.1,2.1l0,0h82.6c1.2,0,2.1-0.9,2.1-2.1l0,0V99.5H78z"/>
			<g transform="translate(161.145 127.441)">
				<path class="st5" d="M88,84.1c1.6,0.5,3.3,0.5,4.9,0c1.1-0.4,1.9-10.6,0.8-11s-3.4,5.5-3.8,5.9L88,81.2L88,84.1z"/>
				<path class="st6" d="M21.9,85.7c11.1,0,28.4-2.3,33.7-1.9s26.8,1.9,32.8,0.8c0,0,0.8-1.9,0-5.7c0,0-25.6-7.9-31.7-8.7
					s-32.8,2.3-32.8,2.3L21.9,85.7z"/>
				<path class="st7" d="M17.1,16.7c-1.1,2.3-2.3,3-7.9,3s-10.9,2.6-8.7,9s12.1,3.8,16.6,2.3s20.3-1.5,20.3-7.9s-4.9-5.7-5.7-9.8
					L17.1,16.7z"/>
				<g transform="translate(44.938 40.827)">
					<path class="st8" d="M21,17.7L21,17.7c0.5,0,1-0.3,1.2-0.8l6.3-15.5c0.2-0.5,0-1.1-0.5-1.3C27.8,0,27.7,0,27.6,0h-0.3
						c-0.4,0-0.7,0.2-0.9,0.6l-6.4,15.8c-0.2,0.5,0,1.1,0.5,1.3C20.7,17.7,20.8,17.7,21,17.7z"/>
					<path class="st8" d="M20.9,17.7H1.3c-0.7,0-1.3-0.6-1.3-1.3v0c0-0.7,0.6-1.3,1.3-1.3h19.6c0.7,0,1.3,0.6,1.3,1.3v0
						C22.2,17.1,21.6,17.7,20.9,17.7z"/>
				</g>
				<path class="st9" d="M28.4,25.4c6.4,1.5,11.7,10.6,13.9,15.8s10.2,6,14.3,5.3c0,0,1.9,3,0.4,5.3c0,0-12.4,6-24.1-1.5L28.4,25.4z
					"/>
				<path class="st9" d="M20.1,24.6c-5.7,1.9-13.2,5.6-13.2,24.1c0,8.3,0.8,15.4,0.8,15.4h29c0,0,1.5-33.9-8.3-38.8L20.1,24.6z"/>
				<path class="st10" d="M36.8,60.8c-3,0.5-8.5,0.5-15.5-3.3c-4.4-2.5-7.5-6.9-8.2-11.9c0,0,0.2,8.9,5.7,13.8
					c1.4,1.2,2.9,2.3,4.4,3.3l-12.5,1.6h26C36.7,64.2,36.8,62.9,36.8,60.8z"/>
				<path class="st10" d="M39.3,50.4c-0.6-2.9-5.2-15.9-5.2-15.9c1.4,5.6,2.2,11.2,2.4,17l0,0.6c3.4,1.4,7,2,10.7,1.8l3.9-0.5
					C43.6,54,39.3,50.4,39.3,50.4z"/>
				<path class="st11" d="M22.6,20.7c0.3,1.7-0.8,3.4-2.5,3.9c0,0-0.3,7.8,6.4,6.4c3.8-0.8,2.3-4.9,1.9-5.7s-2.3,0-1.9-3L22.6,20.7z
					"/>
				<path class="st12" d="M26.9,24.5c-0.3-0.3-0.6-0.9-0.4-2.2l-3.9-1.7c0.1,0.6,0,1.3-0.2,1.9l0,0C22.4,22.6,23.4,24.9,26.9,24.5z"
					/>
				<path class="st9" d="M15.2,33.3c5.5-4.9,11.3,1.1,13.9,11.3s10.2,10.2,10.2,10.2s1.1,0.8,0,5.3c0,0-7.2,3.4-18.1-2.6
					S11.8,36.3,15.2,33.3z"/>
				<path class="st13" d="M80.4,79.7c2.1,1.3,4.4,2.3,6.8,3c3,0.8,4.5,0.8,4.1,1.9s-8.7,1.1-10.9,1.1s-3-3-3-3L80.4,79.7z"/>
				<path class="st14" d="M7.7,64.2c-0.8,9,1.5,22.2,16.6,21.5s25.2-10.2,30.5-10.6s17,8.7,22.2,9.4c2-1.4,3.4-3.6,3.8-6
					c0,0-16.6-21.1-25.2-21.1s-25.6,6.8-25.6,6.8L7.7,64.2z"/>
				<path class="st11" d="M39.6,55.2c0,0,6.1-2.3,7.4-1.2s-1.3,5.6-7.5,5.2L39.6,55.2z"/>
				<path class="st11" d="M56.7,47.2c0,0,5.7-3,7.2-1.1s-6.5,5.1-6.5,5.1L56.7,47.2z"/>
				<path class="st10" d="M39.3,54.8c0,0-7.5,0-10.2-10.2c-0.7-2.9-1.9-5.7-3.4-8.3c0,0,6,9.7,7.2,12.5S36.1,54.4,39.3,54.8z"/>
				<path class="st11" d="M25.6,8.9c-3.9,0.3-4.9,5.8-4.2,9.7s3.3,4.8,6.2,4.5s4.4-3.6,4-7.6S28.8,8.6,25.6,8.9z"/>
				<path class="st15" d="M16.7,9.6c-2.3,1.3-1.5,7.2,0.4,7.2s4.9-1.1,8.3-1.9s7.5,0,7.5-1.9s0.8-6-0.8-6.8S22,6.5,16.7,9.6z"/>
				<path class="st15" d="M16.7,10.3c0,0-3-7.2,4.5-9.8s10.6,6.8,10.6,6.8L16.7,10.3z"/>
				<g transform="translate(17.351 8.729)">
					<path class="st16" d="M2.2,7.5C2.1,7.5,2.1,7.5,2.2,7.5C0.7,6.6-0.1,4,0,2.1C0,1,0.3,0.3,0.9,0c0,0,0.1,0,0.1,0
						c0,0,0,0.1,0,0.1c-0.5,0.2-0.7,1-0.8,2C0.1,4,0.8,6.5,2.2,7.4C2.2,7.4,2.2,7.4,2.2,7.5C2.2,7.5,2.2,7.5,2.2,7.5L2.2,7.5z"/>
				</g>
				<g transform="translate(21.514 7.361)">
					<path class="st16" d="M2.4,7.9C1.8,7.9,1.4,7,1,6.2C0.2,4.2-0.4,0.5,0.3,0c0,0,0.1,0,0.1,0c0,0,0,0.1,0,0.1
						c-0.6,0.4-0.2,3.7,0.8,6c0.4,1.1,0.9,1.7,1.3,1.6c0,0,0.1,0,0.1,0.1c0,0,0,0.1,0,0.1c0,0,0,0,0,0C2.4,7.8,2.4,7.9,2.4,7.9z"/>
				</g>
				<g transform="translate(25.717 6.31)">
					<path class="st16" d="M1.4,8.3C1.3,8.3,1.3,8.3,1.4,8.3c-0.1-0.1,0-0.1,0-0.1c0.3,0,0.5-0.5,0.6-1.4c0.2-2.3-0.6-6.4-1.9-6.7
						c0,0-0.1,0-0.1-0.1C0,0,0,0,0.1,0c1.4,0.3,2.3,4.5,2,6.8C2,7.8,1.8,8.3,1.4,8.3L1.4,8.3z"/>
				</g>
				<g transform="translate(29.994 5.876)">
					<path class="st16" d="M1.1,8.4C1.1,8.4,1.1,8.4,1.1,8.4C1,8.4,1,8.3,1.1,8.3c0,0,0,0,0,0C1.5,8,1.6,5.6,1,2.6
						c-0.3-1.5-0.7-2.4-1-2.5c0,0-0.1,0-0.1-0.1C0,0,0,0,0.1,0C0.6,0.1,1,1.7,1.2,2.6C1.6,4.7,1.8,7.9,1.1,8.4
						C1.1,8.4,1.1,8.4,1.1,8.4z"/>
				</g>
				<g transform="translate(23.334)">
					<path class="st16" d="M6.3,6C6.3,6,6.2,6,6.3,6c-1-3.5-5-5.9-6.2-5.9c0,0-0.1,0-0.1-0.1C0,0,0,0,0.1,0c0,0,0,0,0,0
						C1.4,0,5.5,2.5,6.3,6C6.4,6,6.4,6,6.3,6L6.3,6z"/>
				</g>
				<g transform="translate(21.513 0.168)">
					<path class="st16" d="M0.7,7.2C0.7,7.2,0.7,7.2,0.7,7.2C0.6,6.9-0.8,0.5,0.7,0c0,0,0.1,0,0.1,0c0,0,0,0,0,0c0,0,0,0.1,0,0.1
						C0.2,0.3,0,1.6,0.2,3.8C0.4,5.5,0.8,7.1,0.7,7.2C0.8,7.2,0.8,7.2,0.7,7.2L0.7,7.2z"/>
				</g>
				<g transform="translate(18.37 0.981)">
					<path class="st16" d="M0.5,7.6C0.5,7.6,0.5,7.6,0.5,7.6c-0.7-2.1-0.7-4.4,0.2-6.5C0.8,0.7,1.2,0.3,1.6,0c0,0,0.1,0,0.1,0
						c0,0,0,0,0,0c0,0,0,0.1,0,0.1C1.3,0.4,1,0.7,0.8,1.2C0,3.2-0.1,5.4,0.5,7.6C0.6,7.5,0.6,7.6,0.5,7.6C0.5,7.6,0.5,7.6,0.5,7.6z"
						/>
				</g>
				<path class="st6" d="M17.4,67l12.5-2.8H7.7C7.6,65.1,7.6,66,7.6,67H17.4z"/>
			</g>
			<g transform="translate(84.85 50.066)">
				<path class="st17" d="M10,0h51.8c5.5,0,10,4.5,10,10v19.9c0,5.5-4.5,10-10,10H10c-5.5,0-10-4.5-10-10V10C0,4.5,4.5,0,10,0z"/>
			</g>
			<g transform="translate(85.364 172.429)">
				<path class="st14" d="M9,0h52.7c5,0,9,4,9,9v0.1c0,5-4,9-9,9H9c-5,0-9-4-9-9V9C0,4,4,0,9,0z"/>
			</g>
			<g transform="translate(4.661 80.856)">
				<path class="st7" d="M46.2,126.7c0,0,8.4,2.6,9.1,3.6s-3.1,1-6.4,0.7s-7,0-7.7-0.5s0.3-3.7,0.3-3.7H46.2z"/>
				<path class="st7" d="M6.3,125.9c0,0,4.4,7.6,4.3,8.8s-3-1.4-5.2-3.9s-5.2-4.8-5.3-5.6s2.7-2.6,2.7-2.6L6.3,125.9z"/>
				<path class="st15" d="M46.3,68.4c0,0,3.8,45.7,3.9,57.8c-3.7,0.7-7.4,0.9-11.1,0.8c0,0-7.1-32.9-7.9-37.9c0,0-0.1,17.2-22,38
					c0,0-3.9-0.2-8.2-4c0,0,11.6-19.5,13.2-29s4.2-24.3,6.6-27.5L46.3,68.4z"/>
				<path class="st18" d="M19.2,70.2c0,0,13.6,5.5,27.2-0.9c-0.1-0.7-0.1-1-0.1-1l-25.6-1.7C20,67.8,19.5,69,19.2,70.2L19.2,70.2z"
					/>
				<g transform="translate(19.931 80.775)">
					<path class="st18" d="M11.3,8.3c0,0.2,0.1,0.4,0.1,0.7L11.3,8.3z"/>
					<path class="st18" d="M11.3,8.3C8.8,6.3,7.3,3.2,7.3,0c0,0-2.2,5.8,0.2,11c0,0-2.1,14.3-7.5,23.3C11.2,19.3,11.3,8.3,11.3,8.3z
						"/>
				</g>
				<path class="st11" d="M17.7,39.3c0,0-6,9.8-6.1,24.6l4.5,0.9c0,0,3.3-12.8,6.9-19.4L17.7,39.3z"/>
				<path class="st12" d="M23,45.4l-3.3-3.8L18,41c0.3,2,1.1,4,2.3,5.6l-1.1,7.9C20.2,51.4,21.5,48.3,23,45.4z"/>
				<path class="st19" d="M27,30.7c-2.3,3.3-7.1,17.1-7.6,36.4c0,0,10.9,4.1,27,1.2c0,0,2.5-20.8,1-28.6S27,30.7,27,30.7z"/>
				<path class="st11" d="M32.6,19.2L31.3,25l6.1,1.2l1-5.5L32.6,19.2z"/>
				<path class="st12" d="M33.8,20.6c1,1.4,2.4,2.4,4,2.9l0.5-2.4L33.8,20.6z"/>
				<path class="st11" d="M42.7,44.5c0,0,0.3,5,8,4.4s13.5-9.9,12.6-19.3l-3.5-1.4c0,0-3.7,13.8-11.3,10.4L42.7,44.5z"/>
				<path class="st12" d="M46.9,47.4l2.3-7.3h-2.1l-4.4,4.5c0,0,0.3,5,8,4.4c2.4-0.2,4.6-1.2,6.4-2.7C51,49.3,46.9,47.4,46.9,47.4z"
					/>
				<path class="st11" d="M11.6,63.9c0,0-4.6,8.1-1.2,8.1s3-3.7,4.4-3.7s1,2.1,2.2,1.9s0.3-3.7-0.9-5.4L11.6,63.9z"/>
				<path class="st11" d="M59.8,28.3c-0.1-1,0-2.1,0.2-3c0.4-1.3,2.7-2.1,4.1-3.8s1.7-2.9,2.5-2.2s-0.9,8.4-3.4,10.5L59.8,28.3z"/>
				<path class="st8" d="M65.7,13.2L65.7,13.2c0.7,0.3,1,1,0.8,1.7l-4.2,11.2c-0.3,0.7-1,1-1.7,0.8l0,0c-0.7-0.3-1-1-0.8-1.7L64,14
					C64.3,13.3,65,13,65.7,13.2z"/>
				<path class="st19" d="M17,39c0,0,8.4-15.2,17.8-15s14,12,15.8,14.2c0,0-6.9,8.5-8,11.7C42.7,49.9,22,52.3,17,39z"/>
				<path class="st6" d="M44.2,47.3l-0.3,0.2l-1.2,2.3C30.3,45.4,32,34.7,32,34.7s-4.4,9.6,10.6,18.1l1.8-3c1,0.4,2.1,0.6,3.2,0.5
					c0-0.5,0-0.9,0-1.3C46.4,48.7,45.2,48.2,44.2,47.3z"/>
				<path class="st6" d="M20.6,44.3c0.4,0.4,0.8,0.7,1.3,1.1l0.1-0.4c0.2-2,0.6-4.1,1.1-6.1C21.9,40.6,21.1,42.4,20.6,44.3z"/>
				<path class="st11" d="M38,8.3c-3.9-0.5-5.9,4.4-6,8.1s2.3,5,5.1,5.4s5-2.5,5.4-6.2S41.3,8.6,38,8.3z"/>
				<path class="st7" d="M31.3,9.9c0,0-3.1,10.5,1.3,9.3c1-0.3,3.7-8.1,3.7-8.1s4.8,1.9,8.5,1.1s4.5-4.7,1.4-5c0,0,2.7-1.7,0.8-3.7
					s-4.7,0-4.7,0S43.8-0.1,40,0s-3.6,3.3-3.6,3.3s-3.1-3-5.1-0.8S30.6,9,31.3,9.9z"/>
				<path class="st18" d="M34.4,104.6L34.4,104.6c2.2,10.5,4.8,22.4,4.8,22.4c1.4,0.1,2.8,0.1,4.2,0L34.4,104.6z"/>
			</g>
			<g transform="translate(85.021 107.381)">
				<path class="st20" d="M19.2,3.3H1.7C0.7,3.3,0,2.6,0,1.7c0,0,0,0,0,0l0,0C0,0.7,0.7,0,1.7,0c0,0,0,0,0,0h17.6
					c0.9,0,1.7,0.7,1.7,1.7c0,0,0,0,0,0l0,0C20.9,2.6,20.1,3.3,19.2,3.3L19.2,3.3z"/>
				<path class="st20" d="M69.9,3.3h-4.6c-0.9,0-1.7-0.7-1.7-1.7c0,0,0,0,0,0l0,0c0-0.9,0.7-1.7,1.7-1.7l0,0h4.6
					c0.9,0,1.7,0.7,1.7,1.7c0,0,0,0,0,0l0,0C71.6,2.6,70.8,3.3,69.9,3.3C69.9,3.3,69.9,3.3,69.9,3.3z"/>
				<path class="st20" d="M11.2,9.9H1.7C0.7,9.9,0,9.1,0,8.2c0,0,0,0,0,0l0,0c0-0.9,0.7-1.7,1.7-1.7c0,0,0,0,0,0h9.5
					c0.9,0,1.7,0.7,1.7,1.7c0,0,0,0,0,0l0,0C12.9,9.1,12.1,9.9,11.2,9.9L11.2,9.9z"/>
				<path class="st20" d="M29,9.9H16.7c-0.9,0-1.7-0.7-1.7-1.7l0,0l0,0c0-0.9,0.7-1.7,1.7-1.7c0,0,0,0,0,0H29c0.9,0,1.7,0.7,1.7,1.7
					c0,0,0,0,0,0l0,0C30.6,9.1,29.9,9.9,29,9.9C29,9.9,29,9.9,29,9.9z"/>
				<path class="st20" d="M69.9,9.9h-4.6c-0.9,0-1.7-0.7-1.7-1.7l0,0l0,0c0-0.9,0.7-1.7,1.7-1.7l0,0h4.6c0.9,0,1.7,0.7,1.7,1.7
					c0,0,0,0,0,0l0,0C71.6,9.1,70.8,9.9,69.9,9.9C69.9,9.9,69.9,9.9,69.9,9.9z"/>
				<path class="st20" d="M1.7,13.1h14.3c0.9,0,1.7,0.7,1.7,1.7v0c0,0.9-0.7,1.7-1.7,1.7H1.7c-0.9,0-1.7-0.7-1.7-1.7v0
					C0,13.8,0.7,13.1,1.7,13.1z"/>
				<path class="st20" d="M21.4,13.1h3.2c0.9,0,1.7,0.7,1.7,1.7v0c0,0.9-0.7,1.7-1.7,1.7h-3.2c-0.9,0-1.7-0.7-1.7-1.7v0
					C19.7,13.8,20.5,13.1,21.4,13.1z"/>
				<path class="st20" d="M65.3,13.1h4.6c0.9,0,1.7,0.7,1.7,1.7v0c0,0.9-0.7,1.7-1.7,1.7h-4.6c-0.9,0-1.7-0.7-1.7-1.7v0
					C63.7,13.8,64.4,13.1,65.3,13.1z"/>
				<path class="st20" d="M19.2,22.9H1.7c-0.9,0-1.7-0.7-1.7-1.7l0,0l0,0c0-0.9,0.7-1.7,1.7-1.7c0,0,0,0,0,0h17.6
					c0.9,0,1.7,0.7,1.7,1.7c0,0,0,0,0,0l0,0C20.9,22.2,20.1,22.9,19.2,22.9C19.2,22.9,19.2,22.9,19.2,22.9z"/>
				<path class="st20" d="M69.9,22.9h-4.6c-0.9,0-1.7-0.7-1.7-1.7c0,0,0,0,0,0l0,0c0-0.9,0.7-1.7,1.7-1.7l0,0h4.6
					c0.9,0,1.7,0.7,1.7,1.7c0,0,0,0,0,0l0,0C71.6,22.2,70.8,22.9,69.9,22.9L69.9,22.9z"/>
				<path class="st20" d="M11.2,29.5H1.7c-0.9,0-1.7-0.7-1.7-1.7l0,0l0,0c0-0.9,0.7-1.7,1.7-1.7c0,0,0,0,0,0h9.5
					c0.9,0,1.7,0.7,1.7,1.7c0,0,0,0,0,0l0,0C12.9,28.7,12.1,29.5,11.2,29.5C11.2,29.5,11.2,29.5,11.2,29.5z"/>
				<path class="st20" d="M29,29.5H16.7c-0.9,0-1.7-0.7-1.7-1.7c0,0,0,0,0,0l0,0c0-0.9,0.7-1.7,1.7-1.7c0,0,0,0,0,0H29
					c0.9,0,1.7,0.7,1.7,1.7c0,0,0,0,0,0l0,0C30.6,28.7,29.9,29.5,29,29.5L29,29.5z"/>
				<path class="st20" d="M69.9,29.5h-4.6c-0.9,0-1.7-0.7-1.7-1.7c0,0,0,0,0,0l0,0c0-0.9,0.7-1.7,1.7-1.7l0,0h4.6
					c0.9,0,1.7,0.7,1.7,1.7c0,0,0,0,0,0l0,0C71.6,28.7,70.8,29.5,69.9,29.5L69.9,29.5z"/>
				<path class="st20" d="M15.9,51.6H1.7c-0.9,0-1.7-0.7-1.7-1.7c0,0,0,0,0,0l0,0c0-0.9,0.7-1.7,1.7-1.7c0,0,0,0,0,0h14.2
					c0.9,0,1.7,0.7,1.7,1.7l0,0l0,0C17.6,50.8,16.8,51.6,15.9,51.6L15.9,51.6z"/>
				<path class="st20" d="M24.6,51.6h-3.2c-0.9,0-1.7-0.7-1.7-1.7l0,0l0,0c0-0.9,0.7-1.7,1.7-1.7l0,0h3.2c0.9,0,1.7,0.7,1.7,1.7l0,0
					l0,0C26.2,50.8,25.5,51.6,24.6,51.6L24.6,51.6z"/>
				<path class="st20" d="M71.9,51c0-2.5-2-3.2-3.7-3.8v-3c0.3,0.1,0.6,0.3,0.9,0.5c0.4,0.4,1,0.5,1.5,0.2l0,0
					c0.6-0.3,0.8-1.1,0.4-1.7c0-0.1-0.1-0.1-0.2-0.2c-0.7-0.7-1.6-1.2-2.7-1.3v-0.8c0-0.4-0.4-0.8-0.8-0.8l0,0
					c-0.4,0-0.8,0.4-0.8,0.8v0.8c-1.8,0.2-3.2,1.8-3.2,3.6c0,2.2,1.6,3.1,3.2,3.7v3.2c-0.4-0.1-0.8-0.4-1.1-0.7
					c-0.4-0.5-1-0.6-1.6-0.3l-0.1,0.1c-0.6,0.3-0.8,1.1-0.5,1.7c0,0.1,0.1,0.1,0.1,0.2c0.8,0.9,1.9,1.5,3.1,1.6v0.9
					c0,0.4,0.4,0.8,0.8,0.8l0,0c0.4,0,0.8-0.4,0.8-0.8v-0.8C70.4,54.5,71.9,53.2,71.9,51z M65.9,45.3c0-0.5,0.3-0.9,0.7-1.1v2.2
					C66.2,46.2,65.9,45.7,65.9,45.3L65.9,45.3z M68.3,52.2v-2.6c0.7,0.3,1.2,0.7,1.2,1.3C69.4,51.6,68.9,52.2,68.3,52.2L68.3,52.2z"
					/>
				<rect x="0" y="35.2" class="st20" width="71.6" height="0.9"/>
			</g>
			<g transform="translate(153.396 0.289)">
				<path class="st21" d="M24.5,57.6c-6.2-2.1-11.7-5.9-15.7-11c-3.3-4.2-5.6-9.1-7-14.3c-1.5-5.7-2.1-11.6-1.7-17.5l0.4-3.6h3.9
					c4.8,0.1,9.4-1.2,13.5-3.7c1.7-1,3.3-2.3,4.6-3.9L26.1,0l3.5,3.5c1.3,1.5,2.9,2.8,4.6,3.9c4.1,2.5,8.7,3.8,13.5,3.7h3.9l0.4,3.6
					c0.4,5.9-0.2,11.8-1.7,17.5c-1.3,5.2-3.7,10.1-7,14.3c-4.1,5.1-9.5,9-15.7,11l-1.5,0.5L24.5,57.6z"/>
				<path class="st22" d="M26.1,5.9c0,0-7.2,9.2-21.6,9.2c0,0-3,30.2,21.6,38.7V5.9z"/>
				<path class="st20" d="M26.1,5.9c0,0,7.2,9.2,21.6,9.2c0,0,3,30.2-21.6,38.7V5.9z"/>
			</g>
			<path class="st21" d="M225.2,89.9L225.2,89.9c2.6,0,4.8,2.1,4.8,4.7v0.1c0,2.6-2.1,4.7-4.7,4.7h-0.1c-2.6,0-4.7-2.1-4.7-4.7v-0.1
				C220.4,92,222.6,89.9,225.2,89.9z"/>
			<path class="st23" d="M57.6,52.6L57.6,52.6c4.3,0,7.8,3.4,7.8,7.7v0.1c0,4.3-3.4,7.7-7.7,7.7h-0.1c-4.3,0-7.7-3.4-7.7-7.7v-0.1
				C49.9,56.1,53.4,52.6,57.6,52.6z"/>
		</g>
	</g>
	<g transform="translate(345.841 390.248)">
		<g transform="translate(51.251)">
			<circle class="st24" cx="4.9" cy="4.9" r="4.9"/>
		</g>
		<circle class="st25" cx="49.8" cy="4.9" r="4.9"/>
		<g transform="translate(0 26.329)">
			<path class="st26" d="M2.6,0h7.5c1.4,0,2.6,1.2,2.6,2.6l0,0c0,1.4-1.2,2.6-2.6,2.6H2.6C1.2,5.2,0,4,0,2.6l0,0C0,1.2,1.2,0,2.6,0z
				"/>
		</g>
		<g transform="translate(16.136 26.329)">
			<path class="st26" d="M2.6,0h7.5c1.4,0,2.6,1.2,2.6,2.6l0,0c0,1.4-1.2,2.6-2.6,2.6H2.6C1.2,5.2,0,4,0,2.6l0,0C0,1.2,1.2,0,2.6,0z
				"/>
		</g>
		<g transform="translate(32.273 26.329)">
			<path class="st26" d="M2.6,0h7.5c1.4,0,2.6,1.2,2.6,2.6l0,0c0,1.4-1.2,2.6-2.6,2.6H2.6C1.2,5.2,0,4,0,2.6l0,0C0,1.2,1.2,0,2.6,0z
				"/>
		</g>
		<g transform="translate(48.409 26.329)">
			<path class="st26" d="M2.6,0h7.5c1.4,0,2.6,1.2,2.6,2.6l0,0c0,1.4-1.2,2.6-2.6,2.6H2.6C1.2,5.2,0,4,0,2.6l0,0C0,1.2,1.2,0,2.6,0z
				"/>
		</g>
	</g>
</g>
</svg>
